<?xml version="1.0" encoding="utf-8"?>
<!-- Generator: Adobe Illustrator 26.2.1, SVG Export Plug-In . SVG Version: 6.00 Build 0)  -->
<svg version="1.1" id="Layer_2_00000075873343124709627140000000184127865687052188_"
	 xmlns="http://www.w3.org/2000/svg" xmlns:xlink="http://www.w3.org/1999/xlink" x="0px" y="0px" viewBox="0 0 1080 1080"
	 style="enable-background:new 0 0 1080 1080;" xml:space="preserve">
<g>
	<path d="M190.3,589.9H154v-15.6h20.7v-33.6c-5.9-2.6-17-8.1-33.9-18.4c-20.8-12.6-29.3-30.5-32.5-40H43.3v107.6H27.7V466.7h93
		l1.1,6.5c0.2,0.9,4.4,22.1,27,35.9c24.9,15.1,36.1,19.1,36.2,19.1l5.3,1.8l0,5.6L190.3,589.9L190.3,589.9L190.3,589.9z"/>
	<path d="M146.8,541.1H57.2V497h40.1c0,0,4.7,12.5,16.9,22.1S144.7,540.4,146.8,541.1z"/>
</g>
<g>
	<path d="M199.1,544.1v-79.8h28.9v78.8c0,20.9,10.1,29.9,30.1,29.9s30.1-9.2,30.1-29.9v-78.8h28.7v79.8c0,34.6-19.9,54.3-58.7,54.3
		S199.1,577.2,199.1,544.1L199.1,544.1z"/>
	<path d="M362.1,488.2h-38.8v-23.9H430v23.9h-39v107.5h-28.9L362.1,488.2L362.1,488.2z"/>
	<path d="M428.6,530.6c0-46.4,26.5-69.1,62.7-69.1s61.5,23.9,61.5,68.5s-24.9,68.5-62.5,68.5S428.6,574.2,428.6,530.6z M523.6,531.6
		c0-31.7-13.7-46.4-33-46.4c-13.7,0-32.6,7.8-32.6,45c0,35,16.5,45.4,33.2,45.4C506.1,575.6,523.6,567,523.6,531.6z"/>
</g>
<g>
	<path d="M909.4,531.3c0-46.4,26.5-69.1,62.7-69.1s61.5,23.9,61.5,68.5s-24.9,68.5-62.5,68.5S909.4,575,909.4,531.3z M1004.3,532.3
		c0-31.7-13.7-46.4-33-46.4c-13.7,0-32.7,7.8-32.7,45c0,35,16.5,45.4,33.2,45.4C986.8,576.3,1004.3,567.8,1004.3,532.3z"/>
	<path d="M1050.2,620c-7.9,0-15.1-2.4-22.2-9.2c-4.5-4.3-6.8-9.2-8.6-13.2c-1.2-2.6-2.2-4.8-3.5-6.3c-2.5-0.9-10-0.2-15.4,1.4
		l-6.9-23.2c0.6-0.2,6.3-1.8,13.2-2.5c11.7-1.1,20.4,1.2,26.1,7c4.4,4.5,6.7,9.5,8.5,13.4c1.2,2.5,2.2,4.8,3.4,5.9
		c2.3,2.2,3.6,3.5,13,1.4l5.1,23.6C1058.4,619.4,1054.2,620,1050.2,620z"/>
</g>
<g>
	<path d="M556,558.8l25.3-8c0.2,17.9,13.9,26.5,33,26.5c17.9,0,27.7-7.6,27.7-16.3c0-10.2-12.9-13.9-30.5-17.9
		c-26.3-6-53.2-12.5-53.2-41c0-23.9,18.9-39.8,52.4-39.8s53.2,15.5,54.2,39.4l-25.7,7.4c-0.2-16.3-11-24.7-28.7-24.7
		c-15.7,0-25.1,6.4-25.1,15.1c0,11.1,15.1,15.1,33,18.9c22.5,5,51,11.8,51,41.2c0,24.1-19.1,39.6-56.7,39.6
		C578.7,599.2,557.4,585.9,556,558.8L556,558.8z"/>
	<path d="M674.2,532c0-46.4,25-69.1,59.2-69.1s58.1,23.9,58.1,68.5s-23.5,68.5-59.1,68.5S674.2,575.6,674.2,532z M763.9,533
		c0-31.7-13-46.4-31.2-46.4c-13,0-30.8,7.8-30.8,45c0,35,15.6,45.4,31.4,45.4C747.4,577,763.9,568.4,763.9,533z"/>
	<path d="M797.9,544.1v-79.8h28.8v78.8c0,20.9,6.4,29.9,24.4,29.9s24.4-9.2,24.4-29.9v-78.8H904v79.8c0,34.6-18,54.3-53,54.3
		S797.9,577.2,797.9,544.1z"/>
</g>
</svg>
