<?xml version="1.0" encoding="UTF-8"?>
<svg id="Layer_2" data-name="Layer 2" xmlns="http://www.w3.org/2000/svg" viewBox="0 0 1080 1080">
  <defs>
    <style>
      .cls-1 {
        letter-spacing: -.06em;
      }

      .cls-2 {
        letter-spacing: -.08em;
      }

      .cls-3 {
        font-family: BricolageGrotesque10pt-Bold, 'Bricolage Grotesque 10pt';
        font-size: 199.1px;
        font-weight: 700;
      }

      .cls-3, .cls-4 {
        fill: #231f20;
      }

      .cls-4 {
        stroke-width: 0px;
      }
    </style>
  </defs>
  <g>
    <path class="cls-4" d="m190.29,589.93h-36.3v-15.61h20.69v-33.59c-5.93-2.64-16.98-8.08-33.93-18.37-20.81-12.64-29.32-30.55-32.54-40.05H43.32v107.62h-15.61v-123.23h92.98l1.13,6.45c.16.86,4.36,22.1,27.03,35.86,24.85,15.09,36.06,19.07,36.17,19.1l5.3,1.8-.03,5.58v54.43Z"/>
    <path class="cls-4" d="m146.79,541.13H57.25v-44.12h40.1s4.67,12.45,16.88,22.06c12.21,9.61,30.44,21.3,32.56,22.06Z"/>
  </g>
  <text class="cls-3" transform="translate(185.15 595.7)"><tspan class="cls-1" x="0" y="0">U</tspan><tspan class="cls-2" x="133.59" y="0">T</tspan><tspan class="cls-1" x="231.55" y="0">O</tspan></text>
  <g>
    <path class="cls-4" d="m909.38,531.35c0-46.39,26.48-69.09,62.72-69.09s61.52,23.89,61.52,68.49-24.89,68.49-62.52,68.49-61.72-24.29-61.72-67.89Zm94.97,1c0-31.66-13.74-46.39-33.05-46.39-13.74,0-32.65,7.76-32.65,45,0,35.04,16.52,45.39,33.25,45.39,14.93,0,32.45-8.56,32.45-44Z"/>
    <path class="cls-4" d="m1050.2,620.05c-7.92,0-15.14-2.38-22.24-9.19-4.47-4.29-6.75-9.22-8.58-13.18-1.22-2.64-2.2-4.76-3.55-6.31-2.46-.87-9.98-.21-15.39,1.41l-6.92-23.16c.63-.19,6.32-1.85,13.18-2.52,11.66-1.14,20.44,1.23,26.09,7.04,4.42,4.54,6.69,9.45,8.52,13.4,1.18,2.55,2.2,4.75,3.38,5.88,2.33,2.24,3.61,3.47,13.04,1.44l5.08,23.63c-4.43.95-8.61,1.56-12.61,1.56Z"/>
  </g>
  <g>
    <path class="cls-4" d="m556.05,558.78l25.29-7.96c.2,17.92,13.94,26.48,33.05,26.48,17.92,0,27.67-7.57,27.67-16.33,0-10.15-12.94-13.94-30.46-17.92-26.28-5.97-53.16-12.54-53.16-41.01,0-23.89,18.91-39.82,52.36-39.82s53.16,15.53,54.15,39.42l-25.68,7.37c-.2-16.33-10.95-24.69-28.67-24.69-15.73,0-25.09,6.37-25.09,15.13,0,11.15,15.13,15.13,33.05,18.91,22.5,4.98,50.97,11.75,50.97,41.21,0,24.09-19.11,39.62-56.74,39.62-34.05,0-55.35-13.34-56.74-40.42Z"/>
    <path class="cls-4" d="m674.23,532c0-46.39,25.02-69.09,59.25-69.09s58.13,23.89,58.13,68.49-23.51,68.49-59.07,68.49-58.31-24.29-58.31-67.89Zm89.73,1c0-31.66-12.98-46.39-31.23-46.39-12.98,0-30.85,7.76-30.85,45,0,35.04,15.61,45.39,31.41,45.39,14.11,0,30.66-8.56,30.66-44Z"/>
    <path class="cls-4" d="m797.89,544.14v-79.84h28.8v78.84c0,20.91,6.4,29.86,24.36,29.86s24.36-9.16,24.36-29.86v-78.84h28.63v79.84c0,34.64-17.96,54.35-52.99,54.35s-53.17-21.3-53.17-54.35Z"/>
  </g>
</svg>